<?xml version="1.0" encoding="UTF-8"?>
<svg id="Camada_1" data-name="Camada 1" xmlns="http://www.w3.org/2000/svg" viewBox="0 0 247.02 358">
  <defs>
    <style>
      .cls-1, .cls-2 {
        stroke-width: 0px;
      }

      .cls-2 {
        fill: #fff;
      }
    </style>
  </defs>
  <path class="cls-2" d="M247.02,165.49v61.28c0,26.37-5.1,49.41-15.31,69.11-10.22,19.7-24.49,34.98-42.82,45.84-18.34,10.85-39.89,16.28-64.66,16.28s-46.72-5.1-65.37-15.32c-18.66-10.21-33.13-24.61-43.43-43.18C5.14,280.92,0,259.25,0,234.49v-103.5c0-26.37,5.1-49.37,15.31-68.99,10.22-19.62,24.49-34.86,42.82-45.72C76.47,5.43,98.02,0,122.79,0c20.42,0,39.04,4.34,55.85,13.03,16.8,8.68,30.91,20.83,42.33,36.42,11.42,15.61,19.14,33.86,23.16,54.76h-53.31c-4.51-18.17-13.27-32.08-26.3-41.73-13.03-9.65-26.94-14.47-41.73-14.47-21.88,0-39.41,7.6-52.59,22.79-13.19,15.2-19.79,35.27-19.79,60.19v103.5c0,22.83,6.76,41.13,20.27,54.88,5.94,6.05,12.72,10.77,20.35,14.15l-.02.08h65s-11.96-64.78-11.96-64.78c7.29-5.78,11.96-14.7,11.96-24.72,0-.53-.01-1.05-.04-1.57-.82-16.67-14.59-29.93-31.46-29.93s-30.64,13.26-31.46,29.93h-25.54v-47.04h179.51Z"/>
  <path class="cls-1" d="M91.2,303.6h-.19l.02-.08c.06.03.11.06.17.08Z"/>
  <path class="cls-1" d="M156.01,303.59h0s-.03.01-.03.01c.01,0,.02,0,.03-.01Z"/>
</svg>